<svg width="190" height="25" viewBox="0 0 116 11" fill="none">
	<circle class="shape-main" cx="58" cy="5.5" r="3.5"/>
	<path d="M49.5,3c-1.1,0-2.1,0.8-2.4,1.8c-0.2-0.3-0.5-0.4-0.9-0.4c-0.5,0-0.9,0.3-1.1,0.8L1,5.5l44.1,0.4c0.2,0.5,0.6,0.8,1.1,0.8
	c0.4,0,0.7-0.2,0.9-0.4c0.3,1,1.3,1.8,2.4,1.8c1.4,0,2.5-1.1,2.5-2.5S50.9,3,49.5,3z M49.5,6.9c-0.8,0-1.4-0.6-1.4-1.4
	s0.6-1.4,1.4-1.4c0.8,0,1.4,0.6,1.4,1.4S50.3,6.9,49.5,6.9z"/>
	<path d="M63.9,5.5c0,1.4,1.1,2.5,2.5,2.5c1.1,0,2.1-0.8,2.4-1.8c0.2,0.3,0.5,0.4,0.9,0.4c0.5,0,0.9-0.3,1.1-0.8L115,5.5L70.9,5.1
	c-0.2-0.5-0.6-0.8-1.1-0.8c-0.4,0-0.7,0.2-0.9,0.4c-0.3-1-1.3-1.8-2.4-1.8C65.1,3,63.9,4.1,63.9,5.5z M65,5.5c0-0.8,0.6-1.4,1.4-1.4
	s1.4,0.6,1.4,1.4s-0.6,1.4-1.4,1.4S65,6.3,65,5.5z"/>
</svg>